HIERARCHY
ROOT Hips
{
  OFFSET 50.2091 100.557 11.3008
  CHANNELS 6 Xposition Yposition Zposition Zrotation Xrotation Yrotation
  JOINT spine
  {
    OFFSET 0 8.81704 0.507024
    CHANNELS 3 Zrotation Xrotation Yrotation
    JOINT spine1
    {
      OFFSET 0 10.7766 0
      CHANNELS 3 Zrotation Xrotation Yrotation
      JOINT spine2
      {
        OFFSET 0 10.3259 0
        CHANNELS 3 Zrotation Xrotation Yrotation
        JOINT Neck
        {
          OFFSET 0 26.511 1.26395
          CHANNELS 3 Zrotation Xrotation Yrotation
          JOINT Head
          {
            OFFSET 0 8.00966 0
            CHANNELS 3 Zrotation Xrotation Yrotation
            End Site
            {
              OFFSET 0 19.3879 -6.39386
            }
          }
        }
        JOINT RightShoulder
        {
          OFFSET -4.34795 11.1512 -0.605422
          CHANNELS 3 Zrotation Xrotation Yrotation
          JOINT RightArm
          {
            OFFSET 0 14.6258 0
            CHANNELS 3 Zrotation Xrotation Yrotation
            JOINT RightArmRoll
            {
              OFFSET 0 7.3834 0
              CHANNELS 3 Zrotation Xrotation Yrotation
              JOINT RightForeArm
              {
                OFFSET 0 21.5052 0
                CHANNELS 3 Zrotation Xrotation Yrotation
                JOINT RightForeArmRoll
                {
                  OFFSET 0 8.28532 0
                  CHANNELS 3 Zrotation Xrotation Yrotation
                  JOINT RightHand
                  {
                    OFFSET 0 16.6268 0
                    CHANNELS 3 Zrotation Xrotation Yrotation
                    End Site
                    {
                      OFFSET 0 0 0
                    }
                  }
                }
              }
            }
          }
        }
        JOINT LeftShoulder
        {
          OFFSET 4.34795 11.1512 -0.605422
          CHANNELS 3 Zrotation Xrotation Yrotation
          JOINT LeftArm
          {
            OFFSET 0 14.6258 0
            CHANNELS 3 Zrotation Xrotation Yrotation
            JOINT LeftArmRoll
            {
              OFFSET 0 7.3834 0
              CHANNELS 3 Zrotation Xrotation Yrotation
              JOINT LeftForeArm
              {
                OFFSET 0 21.5052 0
                CHANNELS 3 Zrotation Xrotation Yrotation
                JOINT LeftForeArmRoll
                {
                  OFFSET 0 8.28532 0
                  CHANNELS 3 Zrotation Xrotation Yrotation
                  JOINT LeftHand
                  {
                    OFFSET 0 16.6268 0
                    CHANNELS 3 Zrotation Xrotation Yrotation
                    End Site
                    {
                      OFFSET 0 0 0
                    }
                  }
                }
              }
            }
          }
        }
      }
    }
  }
  JOINT RightUpLeg
  {
    OFFSET -7.8151 -1.43309 -1.20217
    CHANNELS 3 Zrotation Xrotation Yrotation
    JOINT RightUpLegRoll
    {
      OFFSET 0 19.4959 0
      CHANNELS 3 Zrotation Xrotation Yrotation
      JOINT RightLeg
      {
        OFFSET 0 -24.1427 0
        CHANNELS 3 Zrotation Xrotation Yrotation
        JOINT RightLegRoll
        {
          OFFSET 0 24.2217 0
          CHANNELS 3 Zrotation Xrotation Yrotation
          JOINT RightFoot
          {
            OFFSET 0 20.1605 0
            CHANNELS 3 Zrotation Xrotation Yrotation
            JOINT RightToeBase
            {
              OFFSET 0 16.8532 0
              CHANNELS 3 Zrotation Xrotation Yrotation
              End Site
              {
                OFFSET 0.00714343 8.16187 -0.940781
              }
            }
          }
        }
      }
    }
  }
  JOINT LeftUpLeg
  {
    OFFSET 7.8151 -1.43309 -1.20217
    CHANNELS 3 Zrotation Xrotation Yrotation
    JOINT LeftUpLegRoll
    {
      OFFSET 0 19.496 0
      CHANNELS 3 Zrotation Xrotation Yrotation
      JOINT LeftLeg
      {
        OFFSET 0 24.1426 0
        CHANNELS 3 Zrotation Xrotation Yrotation
        JOINT LeftLegRoll
        {
          OFFSET 0 24.4456 0
          CHANNELS 3 Zrotation Xrotation Yrotation
          JOINT LeftFoot
          {
            OFFSET 0 19.9366 0
            CHANNELS 3 Zrotation Xrotation Yrotation
            JOINT LeftToeBase
            {
              OFFSET 0 16.8532 0
              CHANNELS 3 Zrotation Xrotation Yrotation
              End Site
              {
                OFFSET -0.0320138 8.16187 -0.94078
              }
            }
          }
        }
      }
    }
  }
}
MOTION
Frames: 4
Frame Time: 0.00208333
50.8056 100.542 11.715 -0.449168 -0.0623778 -0.0262202 -0.0305687 -3.00103 -0.175649 -0.0694548 -2.00463 -0.349239 -0.0651935 -0.359585 -0.347993 18.3449 22.3899 13.9934 -20.8498 -10.1213 15.6743 15.6542 -12.3171 -9.14203 21.7168 31.9292 81.6398 -1.85234e-006 -1.05794e-005 1.12802e-006 -4.25158 61.7119 7.77161 -7.78306e-007 3.81726e-006 -3.00001 8.02889 -4.95147 0.697686 -28.2499 -14.1819 10.6438 8.30173 26.6279 -89.0344 3.07745e-006 2.48628e-006 1.14015e-005 8.18375 51.5028 -5.45549 1.42611e-005 4.70561e-006 3.00244 -8.02908 -4.95144 -0.697658 179.179 2.11173 -0.986178 180 7.01563e-015 178.994 178.257 5.8097 179.723 2.31802e-006 -1.13788e-006 0.0363492 -18.0664 67.2236 18.9265 8.13649 25.2327 -3.48773 -177.429 1.11711 2.49651 4.54188e-006 -4.6773e-006 -1.05829 -2.28249 -7.61909 0.147012 -3.99226e-006 -3.03929e-006 -0.127152 19.5004 69.0273 -20.435 -8.14892 25.4162 3.23745 
50.8013 100.541 11.7169 -0.44617 -0.0658064 -0.029019 -0.0316735 -2.99849 -0.176322 -0.071504 -1.99855 -0.350472 -0.0672387 -0.353496 -0.349199 18.3929 22.126 14.0526 -20.7355 -9.8089 15.7985 15.6826 -12.3209 -9.14582 21.4714 31.9226 81.6644 -1.85234e-006 -1.05794e-005 1.12802e-006 -4.18223 61.9909 7.76026 -7.78306e-007 3.81726e-006 -3.00001 8.02889 -4.95147 0.697686 -28.2538 -14.1335 10.5902 8.48214 26.4994 -89.0472 3.07745e-006 2.48628e-006 1.14015e-005 8.15648 51.6497 -5.46666 1.42611e-005 4.70561e-006 3.00244 -8.02908 -4.95144 -0.697658 179.175 2.10503 -0.984933 180 7.01563e-015 178.994 178.258 5.80534 179.722 2.31802e-006 -1.13788e-006 0.0363207 -18.0675 67.2251 18.9278 8.13649 25.2327 -3.48773 -177.433 1.11296 2.49801 4.54188e-006 -4.6773e-006 -1.05825 -2.28307 -7.61858 0.146822 -3.99226e-006 -3.03929e-006 -0.127021 19.4989 69.0258 -20.4335 -8.14888 25.4156 3.23786 
50.8037 100.543 11.7152 -0.443361 -0.0692098 -0.0324116 -0.0327236 -2.99588 -0.17707 -0.0734496 -1.99236 -0.351859 -0.0691783 -0.347308 -0.350559 18.4435 21.8725 14.1079 -20.6331 -9.51059 15.9161 15.7134 -12.3248 -9.14965 21.2206 31.9154 81.6924 -1.85234e-006 -1.05794e-005 1.12802e-006 -4.11596 62.2528 7.74849 -7.78306e-007 3.81726e-006 -3.00001 8.02889 -4.95147 0.697686 -28.2525 -14.0878 10.54 8.65411 26.3745 -89.057 3.07745e-006 2.48628e-006 1.14015e-005 8.12948 51.7951 -5.47736 1.42611e-005 4.70561e-006 3.00244 -8.02908 -4.95144 -0.697658 179.172 2.09849 -0.983728 180 7.01563e-015 178.994 178.259 5.80109 179.722 2.31802e-006 -1.13788e-006 0.0362923 -18.0686 67.2266 18.929 8.13649 25.2327 -3.48773 -177.437 1.10851 2.49938 4.54188e-006 -4.6773e-006 -1.0582 -2.28369 -7.61775 0.146627 -3.99226e-006 -3.03929e-006 -0.126889 19.4975 69.0244 -20.432 -8.14884 25.415 3.23825 
50.7993 100.542 11.7117 -0.440764 -0.072613 -0.0365746 -0.0337024 -2.99319 -0.17789 -0.0752645 -1.98606 -0.353395 -0.0709847 -0.341007 -0.352072 18.4978 21.6346 14.1573 -20.5471 -9.23266 16.0242 15.7464 -12.3289 -9.15364 20.9641 31.9078 81.7258 -1.85234e-006 -1.05794e-005 1.12802e-006 -4.05388 62.4953 7.73713 -7.78306e-007 3.81726e-006 -3.00001 8.02889 -4.95147 0.697686 -28.245 -14.0455 10.494 8.81616 26.254 -89.0646 3.07745e-006 2.48628e-006 1.14015e-005 8.10325 51.9398 -5.48801 1.42611e-005 4.70561e-006 3.00244 -8.02908 -4.95144 -0.697658 179.169 2.09214 -0.982547 180 7.01563e-015 178.994 178.26 5.79702 179.722 2.31802e-006 -1.13788e-006 0.036264 -18.0697 67.2281 18.9302 8.13649 25.2327 -3.48773 -177.441 1.1036 2.50058 4.54188e-006 -4.6773e-006 -1.05816 -2.28438 -7.61651 0.146426 -3.99226e-006 -3.03929e-006 -0.126757 19.4961 69.023 -20.4305 -8.14881 25.4145 3.23858 
